<svg width="236" height="70" viewBox="0 0 236 70" fill="none" xmlns="http://www.w3.org/2000/svg">
<g clip-path="url(#clip0_2724_1816)">
<path fill-rule="evenodd" clip-rule="evenodd" d="M227.22 70H8.77656C3.93835 70 -0.00195312 66.0549 -0.00195312 61.25V8.75C-0.00195312 3.92768 3.93835 0 8.77656 0H227.22C232.053 0 235.998 3.92768 235.998 8.75V61.25C235.998 66.0549 232.053 70 227.22 70Z" fill="black"/>
<path fill-rule="evenodd" clip-rule="evenodd" d="M227.22 1.40087C231.278 1.40087 234.599 4.70449 234.599 8.75V61.25C234.599 65.2955 231.299 68.5991 227.22 68.5991H8.77656C4.71857 68.5991 1.3972 65.2955 1.3972 61.25V8.75C1.3972 4.70449 4.69678 1.40087 8.77656 1.40087H227.22ZM227.22 0H8.77656C3.93835 0 -0.00195312 3.94514 -0.00195312 8.75V61.25C-0.00195312 66.0723 3.93835 70 8.77656 70H227.22C232.053 70 235.998 66.0723 235.998 61.25V8.75C235.998 3.94514 232.053 0 227.22 0Z" fill="#A6A6A6"/>
<path d="M118.363 38.7865C114.277 38.7865 110.947 41.8926 110.947 46.1746C110.947 50.4289 114.277 53.5627 118.363 53.5627C122.449 53.5627 125.779 50.4289 125.779 46.1746C125.779 41.8926 122.449 38.7865 118.363 38.7865ZM118.363 50.653C116.124 50.653 114.192 48.8064 114.192 46.1746C114.192 43.515 116.124 41.6963 118.363 41.6963C120.602 41.6963 122.532 43.515 122.532 46.1746C122.532 48.8046 120.602 50.653 118.363 50.653ZM102.183 38.7865C98.0975 38.7865 94.7674 41.8926 94.7674 46.1746C94.7674 50.4289 98.0975 53.5627 102.183 53.5627C106.269 53.5627 109.599 50.4289 109.599 46.1746C109.601 41.8926 106.269 38.7865 102.183 38.7865ZM102.183 50.653C99.9441 50.653 98.0141 48.8064 98.0141 46.1746C98.0141 43.515 99.9458 41.6963 102.183 41.6963C104.422 41.6963 106.352 43.515 106.352 46.1746C106.354 48.8046 104.422 50.653 102.183 50.653ZM82.9392 41.0535V44.1873H90.4402C90.2161 45.9505 89.6289 47.2377 88.7326 48.1341C87.6417 49.225 85.934 50.4289 82.9392 50.4289C78.3219 50.4289 74.7121 46.7062 74.7121 42.0888C74.7121 37.4715 78.3219 33.7488 82.9392 33.7488C85.4303 33.7488 87.2491 34.7286 88.5919 35.988L90.8033 33.7766C88.9289 31.9856 86.4378 30.6133 82.9392 30.6133C76.6143 30.6133 71.2969 35.7622 71.2969 42.0871C71.2969 48.4121 76.6143 53.5609 82.9392 53.5609C86.3527 53.5609 88.9289 52.4422 90.944 50.342C93.0146 48.2713 93.6591 45.3599 93.6591 43.0095C93.6591 42.2817 93.6035 41.6094 93.4906 41.05H82.9392V41.0535ZM161.646 43.4872C161.031 41.8352 159.155 38.7848 155.321 38.7848C151.515 38.7848 148.353 41.7796 148.353 46.1729C148.353 50.3142 151.487 53.5609 155.686 53.5609C159.071 53.5609 161.031 51.4903 161.842 50.2864L159.323 48.6066C158.484 49.8382 157.336 50.6495 155.686 50.6495C154.034 50.6495 152.859 49.8938 152.104 48.4103L161.983 44.3246L161.646 43.4872ZM151.57 45.9505C151.487 43.0964 153.782 41.6407 155.432 41.6407C156.719 41.6407 157.81 42.2834 158.175 43.2076L151.57 45.9505ZM143.538 53.1145H146.784V31.3985H143.538V53.1145ZM138.22 40.4368H138.109C137.381 39.57 135.983 38.7848 134.22 38.7848C130.525 38.7848 127.139 42.0315 127.139 46.2007C127.139 50.342 130.525 53.5609 134.22 53.5609C135.983 53.5609 137.381 52.7775 138.109 51.8811H138.22V52.9443C138.22 55.7706 136.709 57.2819 134.274 57.2819C132.286 57.2819 131.055 55.854 130.551 54.6519L127.725 55.8279C128.536 57.7874 130.692 60.1934 134.274 60.1934C138.08 60.1934 141.299 57.9542 141.299 52.4978V39.233H138.22V40.4368ZM134.499 50.653C132.26 50.653 130.386 48.7786 130.386 46.2024C130.386 43.6002 132.26 41.6963 134.499 41.6963C136.711 41.6963 138.444 43.5984 138.444 46.2024C138.444 48.7769 136.711 50.653 134.499 50.653ZM176.853 31.3985H169.086V53.1145H172.326V44.8874H176.851C180.443 44.8874 183.975 42.2869 183.975 38.1438C183.975 34.0007 180.445 31.3985 176.853 31.3985ZM176.936 41.8648H172.326V34.4211H176.936C179.359 34.4211 180.735 36.4275 180.735 38.1438C180.735 39.8254 179.359 41.8648 176.936 41.8648ZM196.969 38.7466C194.622 38.7466 192.192 39.7802 191.186 42.0715L194.064 43.2736C194.679 42.0715 195.824 41.6806 197.026 41.6806C198.702 41.6806 200.407 42.6864 200.434 44.4739V44.698C199.847 44.3628 198.59 43.859 197.054 43.859C193.953 43.859 190.795 45.5631 190.795 48.7491C190.795 51.6553 193.338 53.5262 196.187 53.5262C198.367 53.5262 199.568 52.5482 200.321 51.4034H200.433V53.0798H203.561V44.7536C203.561 40.8972 200.685 38.7466 196.969 38.7466ZM196.576 50.6478C195.515 50.6478 194.033 50.1162 194.033 48.8046C194.033 47.1283 195.878 46.4856 197.469 46.4856C198.894 46.4856 199.564 46.793 200.431 47.2117C200.181 49.2233 198.449 50.6478 196.576 50.6478ZM214.96 39.2208L211.245 48.6361H211.133L207.279 39.2208H203.787L209.57 52.3797L206.273 59.7H209.653L218.567 39.2208H214.96ZM185.764 53.1145H189.006V31.3985H185.764V53.1145Z" fill="white"/>
<path d="M35.9905 33.7422L17.4951 53.3719C17.4969 53.3754 17.4969 53.3789 17.4986 53.3823C18.0649 55.5155 20.0122 57.0842 22.3226 57.0842C23.2468 57.0842 24.1136 56.834 24.8571 56.3963L24.9162 56.3615L45.7341 44.3492L35.9905 33.7422Z" fill="#EB4335"/>
<path d="M54.7005 30.4023L54.6831 30.3901L45.6951 25.1787L35.5693 34.1893L45.7299 44.3481L54.671 39.1905C56.2379 38.3445 57.301 36.6925 57.301 34.7868C57.301 32.8951 56.2518 31.25 54.7005 30.4023Z" fill="#FABC13"/>
<path d="M17.4945 16.1162C17.3833 16.5262 17.3242 16.9553 17.3242 17.4017V52.0872C17.3242 52.5337 17.3815 52.9645 17.4945 53.3727L36.6256 34.245L17.4945 16.1162Z" fill="#547DBF"/>
<path d="M36.126 34.744L45.6994 25.174L24.904 13.1183C24.1484 12.6649 23.2676 12.4043 22.3226 12.4043C20.0122 12.4043 18.0632 13.9764 17.4951 16.1114V16.1166L36.126 34.744Z" fill="#30A851"/>
<path d="M82.8177 17.1344H77.7341V18.3961H81.5433C81.4402 19.4216 81.0294 20.2284 80.3424 20.8146C79.6536 21.4009 78.7743 21.6949 77.7341 21.6949C76.5908 21.6949 75.6241 21.2994 74.834 20.5066C74.0578 19.6999 73.6609 18.7041 73.6609 17.5001C73.6609 16.2979 74.0578 15.3004 74.834 14.4936C75.6241 13.7026 76.5908 13.3071 77.7341 13.3071C78.3198 13.3071 78.8774 13.4086 79.3896 13.6291C79.9018 13.8496 80.3126 14.1576 80.6343 14.5531L81.601 13.5854C81.1623 13.0866 80.6046 12.7051 79.9176 12.4269C79.2288 12.1486 78.5103 12.0156 77.7341 12.0156C76.2097 12.0156 74.9214 12.5441 73.8672 13.5994C72.8113 14.6564 72.2852 15.9601 72.2852 17.5001C72.2852 19.0401 72.8113 20.3456 73.8672 21.4009C74.9214 22.4579 76.2097 22.9846 77.7341 22.9846C79.3302 22.9846 80.6046 22.4719 81.5871 21.4306C82.4506 20.5661 82.8912 19.3919 82.8912 17.9254C82.8912 17.6769 82.8615 17.4126 82.8177 17.1344Z" fill="white"/>
<path d="M84.8247 12.2501V22.7501H90.9485V21.4604H86.1725V18.1319H90.4782V16.8701H86.1725V13.5416H90.9485V12.2501H84.8247Z" fill="white"/>
<path d="M99.5598 13.5416V12.2501H92.3522V13.5416H95.2821V22.7501H96.6299V13.5416H99.5598Z" fill="white"/>
<path d="M106.124 12.2501H104.776V22.7501H106.124V12.2501Z" fill="white"/>
<path d="M115.031 13.5416V12.2501H107.823V13.5416H110.753V22.7501H112.101V13.5416H115.031Z" fill="white"/>
<path d="M128.67 13.6151C127.63 12.5441 126.355 12.0156 124.831 12.0156C123.308 12.0156 122.032 12.5441 120.992 13.5994C119.952 14.6406 119.44 15.9461 119.44 17.5001C119.44 19.0559 119.952 20.3596 120.992 21.4009C122.032 22.4579 123.308 22.9846 124.831 22.9846C126.34 22.9846 127.63 22.4579 128.67 21.4009C129.71 20.3596 130.222 19.0559 130.222 17.5001C130.222 15.9601 129.71 14.6564 128.67 13.6151ZM121.961 14.4936C122.737 13.7026 123.688 13.3071 124.831 13.3071C125.974 13.3071 126.925 13.7026 127.687 14.4936C128.464 15.2724 128.845 16.2839 128.845 17.5001C128.845 18.7181 128.464 19.7296 127.687 20.5066C126.925 21.2994 125.974 21.6949 124.831 21.6949C123.688 21.6949 122.737 21.2994 121.961 20.5066C121.198 19.7156 120.817 18.7181 120.817 17.5001C120.817 16.2839 121.198 15.2864 121.961 14.4936Z" fill="white"/>
<path d="M133.46 16.2104L133.402 14.1856H133.46L138.793 22.7501H140.199V12.2501H138.851V18.3961L138.911 20.4191H138.851L133.754 12.2501H132.114V22.7501H133.46V16.2104Z" fill="white"/>
</g>
<defs>
<clipPath id="clip0_2724_1816">
<rect width="236" height="70" fill="white"/>
</clipPath>
</defs>
</svg>
