<svg width="208" height="70" viewBox="0 0 208 70" fill="none" xmlns="http://www.w3.org/2000/svg">
<g clip-path="url(#clip0_2724_1787)">
<path d="M191.436 0.0002275H16.5732C15.9358 0.0002275 15.306 0.0002275 14.6703 0.0037275C14.1382 0.0072275 13.6103 0.017395 13.073 0.0259525C11.9058 0.0397807 10.7414 0.143161 9.58982 0.335195C8.43987 0.53141 7.32594 0.90133 6.28571 1.43244C5.24675 1.96805 4.29743 2.66402 3.47217 3.4951C2.64259 4.32384 1.95106 5.28176 1.42419 6.33201C0.895868 7.38017 0.529526 8.50337 0.337819 9.66282C0.14429 10.8208 0.0401496 11.9921 0.0263337 13.1663C0.0102032 13.7029 0.00849979 14.2412 0 14.7778V55.2278C0.00849979 55.7712 0.0102032 56.2976 0.0263337 56.8411C0.0401538 58.0152 0.144294 59.1865 0.337819 60.3444C0.528997 61.5046 0.895361 62.6284 1.42419 63.677C1.95083 64.7238 2.64245 65.6778 3.47217 66.502C4.2943 67.3368 5.24424 68.0332 6.28571 68.5647C7.32593 69.0972 8.43974 69.4694 9.58982 69.6686C10.7416 69.8591 11.9059 69.9625 13.073 69.978C13.6103 69.9899 14.1382 69.9967 14.6703 69.9967C15.306 70.0002 15.9358 70.0002 16.5732 70.0002H191.436C192.061 70.0002 192.696 70.0002 193.32 69.9967C193.85 69.9967 194.393 69.9899 194.923 69.978C196.088 69.9633 197.25 69.8599 198.399 69.6686C199.553 69.468 200.671 69.0959 201.716 68.5647C202.757 68.0329 203.706 67.3365 204.527 66.502C205.355 65.6746 206.048 64.7213 206.581 63.677C207.106 62.6276 207.469 61.5039 207.657 60.3444C207.851 59.1863 207.959 58.0153 207.98 56.8411C207.986 56.2976 207.986 55.7712 207.986 55.2278C208 54.592 208 53.9597 208 53.3136V16.6885C208 16.0476 208 15.4118 207.986 14.7778C207.986 14.2412 207.986 13.7029 207.98 13.1662C207.959 11.992 207.851 10.8209 207.657 9.66275C207.468 8.50397 207.105 7.38086 206.581 6.33194C205.508 4.22682 203.807 2.51327 201.716 1.43229C200.671 0.90247 199.553 0.532648 198.399 0.335037C197.25 0.142157 196.088 0.0387411 194.923 0.0257075C194.393 0.0171675 193.85 0.0069125 193.32 0.0035C192.696 0 192.061 0 191.436 0V0.0002275Z" fill="#A6A6A6"/>
<path d="M14.6789 68.4697C14.1493 68.4697 13.6325 68.4629 13.1071 68.451C12.0186 68.4367 10.9326 68.3413 9.85814 68.1656C8.85622 67.9918 7.88563 67.6687 6.97839 67.2067C6.07947 66.7486 5.25958 66.1479 4.55013 65.4277C3.83041 64.7159 3.23121 63.8904 2.77628 62.9838C2.31633 62.0714 1.99802 61.0933 1.83244 60.0837C1.65362 58.9989 1.55687 57.902 1.54303 56.8025C1.53201 56.4334 1.51758 55.2045 1.51758 55.2045V14.7786C1.51758 14.7786 1.53294 13.5686 1.54311 13.2131C1.55637 12.1153 1.65255 11.0201 1.83084 9.937C1.99673 8.92466 2.31528 7.94379 2.77548 7.02833C3.22874 6.12238 3.82461 5.29623 4.53999 4.58192C5.25457 3.86081 6.07709 3.25703 6.97754 2.79259C7.8827 2.33214 8.85145 2.01126 9.85134 1.8407C10.9294 1.66319 12.0191 1.56722 13.1114 1.55359L14.6798 1.53223H193.312L194.899 1.55445C195.981 1.5674 197.061 1.66251 198.129 1.83898C199.139 2.01168 200.118 2.3348 201.034 2.79772C202.838 3.7337 204.306 5.21451 205.232 7.0326C205.684 7.94174 205.998 8.91461 206.162 9.91821C206.342 11.0102 206.443 12.114 206.464 13.2208C206.469 13.7164 206.469 14.2488 206.469 14.7786C206.483 15.4348 206.483 16.0594 206.483 16.6892V53.3144C206.483 53.9501 206.483 54.5705 206.469 55.196C206.469 55.7651 206.469 56.2864 206.462 56.8229C206.442 57.91 206.343 58.9941 206.165 60.0666C206.003 61.0834 205.686 62.0691 205.226 62.9891C204.768 63.8858 204.173 64.7042 203.461 65.414C202.751 66.1382 201.93 66.7424 201.029 67.2034C200.116 67.6689 199.138 67.9933 198.129 68.1656C197.055 68.3423 195.969 68.4377 194.88 68.451C194.371 68.4629 193.838 68.4697 193.32 68.4697L191.436 68.4732L14.6789 68.4697Z" fill="black"/>
<path d="M73.5301 47.4944H65.3025L63.3267 53.3682H59.8418L67.6348 31.6367H71.2555L79.0486 53.3682H75.5042L73.5301 47.4944ZM66.1546 44.784H72.6764L69.4614 35.2513H69.3714L66.1546 44.784Z" fill="white"/>
<path d="M95.8767 45.447C95.8767 50.3706 93.2592 53.5339 89.3092 53.5339C88.3086 53.5866 87.3135 53.3546 86.4378 52.8643C85.5621 52.3741 84.8413 51.6455 84.3577 50.7619H84.283V58.6096H81.0527V37.5242H84.1795V40.1594H84.2389C84.7447 39.2801 85.4777 38.5553 86.3601 38.062C87.2424 37.5688 88.2411 37.3256 89.2498 37.3584C93.2439 37.3584 95.8767 40.5371 95.8767 45.447ZM92.5565 45.447C92.5565 42.2393 90.9099 40.1304 88.3977 40.1304C85.9296 40.1304 84.2695 42.2837 84.2695 45.447C84.2695 48.6394 85.9296 50.7774 88.3977 50.7774C90.9099 50.7774 92.5565 48.6838 92.5565 45.447Z" fill="white"/>
<path d="M113.199 45.447C113.199 50.3706 110.581 53.5339 106.632 53.5339C105.631 53.5866 104.636 53.3546 103.76 52.8643C102.884 52.3741 102.164 51.6455 101.68 50.7619H101.605V58.6096H98.375V37.5242H101.502V40.1594H101.561C102.067 39.2801 102.8 38.5553 103.682 38.062C104.565 37.5688 105.563 37.3256 106.572 37.3584C110.566 37.3584 113.199 40.5371 113.199 45.447ZM109.879 45.447C109.879 42.2393 108.232 40.1304 105.72 40.1304C103.252 40.1304 101.592 42.2837 101.592 45.447C101.592 48.6394 103.252 50.7773 105.72 50.7773C108.232 50.7773 109.879 48.6838 109.879 45.447H109.879Z" fill="white"/>
<path d="M124.647 47.3133C124.886 49.4684 126.965 50.8833 129.807 50.8833C132.53 50.8833 134.488 49.4683 134.488 47.5252C134.488 45.8384 133.307 44.8284 130.51 44.1362L127.712 43.4578C123.749 42.4939 121.909 40.6277 121.909 37.5994C121.909 33.8499 125.154 31.2744 129.763 31.2744C134.324 31.2744 137.45 33.8499 137.556 37.5994H134.295C134.1 35.4307 132.319 34.1216 129.717 34.1216C127.115 34.1216 125.334 35.4461 125.334 37.3738C125.334 38.9102 126.471 39.8142 129.253 40.5063L131.632 41.0942C136.06 42.1486 137.9 43.9397 137.9 47.1184C137.9 51.184 134.684 53.7304 129.567 53.7304C124.781 53.7304 121.549 51.2438 121.34 47.3132L124.647 47.3133Z" fill="white"/>
<path d="M144.872 33.7744V37.5239H147.864V40.0994H144.872V48.834C144.872 50.1909 145.471 50.8232 146.786 50.8232C147.142 50.817 147.496 50.7919 147.849 50.748V53.3081C147.257 53.4193 146.656 53.4697 146.055 53.4584C142.869 53.4584 141.626 52.2536 141.626 49.1809V40.0994H139.338V37.5239H141.626V33.7744H144.872Z" fill="white"/>
<path d="M149.6 45.4468C149.6 40.4617 152.516 37.3291 157.063 37.3291C161.626 37.3291 164.529 40.4616 164.529 45.4468C164.529 50.4456 161.641 53.5644 157.063 53.5644C152.487 53.5644 149.6 50.4455 149.6 45.4468ZM161.237 45.4468C161.237 42.0271 159.681 40.0088 157.063 40.0088C154.446 40.0088 152.891 42.0425 152.891 45.4468C152.891 48.8801 154.446 50.8831 157.063 50.8831C159.681 50.8831 161.237 48.8801 161.237 45.4468H161.237Z" fill="white"/>
<path d="M167.189 37.524H170.27V40.2208H170.345C170.554 39.3785 171.044 38.6342 171.733 38.1129C172.422 37.5916 173.269 37.3251 174.13 37.3582C174.503 37.3569 174.874 37.3976 175.237 37.4796V40.5216C174.767 40.377 174.277 40.3106 173.786 40.325C173.317 40.3059 172.849 40.3892 172.414 40.5692C171.98 40.7493 171.59 41.0218 171.27 41.3681C170.95 41.7144 170.709 42.1263 170.562 42.5755C170.415 43.0246 170.367 43.5005 170.42 43.9703V53.368H167.189L167.189 37.524Z" fill="white"/>
<path d="M190.129 48.7144C189.695 51.5906 186.913 53.5644 183.353 53.5644C178.775 53.5644 175.934 50.4763 175.934 45.522C175.934 40.5522 178.79 37.3291 183.217 37.3291C187.571 37.3291 190.309 40.3403 190.309 45.1443V46.2585H179.194V46.4551C179.143 47.0382 179.216 47.6256 179.407 48.1783C179.599 48.731 179.905 49.2364 180.305 49.6609C180.706 50.0853 181.191 50.4192 181.73 50.6402C182.268 50.8612 182.847 50.9644 183.428 50.9429C184.191 51.0149 184.957 50.8369 185.612 50.4354C186.267 50.0338 186.775 49.4302 187.062 48.7143L190.129 48.7144ZM179.21 43.9856H187.077C187.106 43.4613 187.027 42.9366 186.846 42.4445C186.664 41.9524 186.383 41.5035 186.02 41.1259C185.658 40.7483 185.222 40.4502 184.739 40.2503C184.257 40.0504 183.739 39.9531 183.217 39.9644C182.691 39.9612 182.17 40.0629 181.683 40.2637C181.196 40.4645 180.754 40.7604 180.381 41.1343C180.009 41.5081 179.713 41.9526 179.512 42.442C179.311 42.9314 179.208 43.456 179.21 43.9856V43.9856Z" fill="white"/>
<path d="M65.7521 15.2785C66.4294 15.2295 67.1089 15.3325 67.7418 15.58C68.3747 15.8275 68.9452 16.2134 69.4121 16.7097C69.8789 17.2061 70.2305 17.8005 70.4415 18.4503C70.6526 19.1 70.7177 19.7888 70.6323 20.4669C70.6323 23.8029 68.8415 25.7204 65.7521 25.7204H62.0059V15.2785H65.7521ZM63.6167 24.2437H65.5722C66.0561 24.2728 66.5404 24.1929 66.9898 24.0099C67.4392 23.8268 67.8424 23.5451 68.17 23.1854C68.4977 22.8257 68.7415 22.3969 68.8838 21.9303C69.0261 21.4637 69.0633 20.9711 68.9926 20.4882C69.0581 20.0072 69.0172 19.5176 68.8727 19.0545C68.7282 18.5913 68.4838 18.1661 68.1569 17.8092C67.83 17.4523 67.4288 17.1726 66.9819 16.9902C66.5351 16.8078 66.0537 16.7272 65.5722 16.7541H63.6167V24.2437Z" fill="white"/>
<path d="M72.453 21.7771C72.4038 21.2593 72.4626 20.7368 72.6258 20.2432C72.7889 19.7495 73.0527 19.2957 73.4002 18.9107C73.7477 18.5258 74.1714 18.2182 74.6439 18.0077C75.1164 17.7972 75.6274 17.6885 76.1441 17.6885C76.6608 17.6885 77.1719 17.7972 77.6444 18.0077C78.1169 18.2182 78.5405 18.5258 78.8881 18.9107C79.2356 19.2957 79.4994 19.7495 79.6625 20.2432C79.8256 20.7368 79.8845 21.2593 79.8353 21.7771C79.8854 22.2955 79.8273 22.8187 79.6646 23.3132C79.5019 23.8076 79.2383 24.2623 78.8906 24.648C78.543 25.0337 78.1191 25.3419 77.6461 25.5529C77.1731 25.7638 76.6615 25.8728 76.1441 25.8728C75.6268 25.8728 75.1152 25.7638 74.6422 25.5529C74.1692 25.3419 73.7453 25.0337 73.3976 24.648C73.05 24.2623 72.7864 23.8076 72.6237 23.3132C72.461 22.8187 72.4029 22.2955 72.453 21.7771ZM78.2464 21.7771C78.2464 20.069 77.4843 19.0701 76.1467 19.0701C74.804 19.0701 74.0487 20.069 74.0487 21.7772C74.0487 23.499 74.804 24.4902 76.1467 24.4902C77.4843 24.4901 78.2464 23.4921 78.2464 21.7771H78.2464Z" fill="white"/>
<path d="M89.647 25.7209H88.0446L86.4269 19.9172H86.3047L84.6938 25.7209H83.1067L80.9492 17.8408H82.516L83.9181 23.8538H84.0335L85.6427 17.8408H87.1246L88.7338 23.8538H88.856L90.2513 17.8408H91.796L89.647 25.7209Z" fill="white"/>
<path d="M93.6094 17.8405H95.0964V19.0924H95.2118C95.4076 18.6427 95.7379 18.2658 96.1565 18.0142C96.5752 17.7625 97.0615 17.6486 97.5475 17.6884C97.9283 17.6596 98.3107 17.7174 98.6664 17.8576C99.022 17.9977 99.3417 18.2167 99.6019 18.4982C99.8621 18.7796 100.056 19.1164 100.169 19.4836C100.283 19.8508 100.313 20.239 100.257 20.6193V25.7206H98.7119V21.0099C98.7119 19.7435 98.1654 19.1137 97.023 19.1137C96.7644 19.1016 96.5063 19.1459 96.2663 19.2436C96.0263 19.3413 95.8102 19.4901 95.6327 19.6798C95.4552 19.8695 95.3205 20.0955 95.2379 20.3425C95.1553 20.5895 95.1267 20.8515 95.1541 21.1107V25.7207H93.6094L93.6094 17.8405Z" fill="white"/>
<path d="M102.717 14.7646H104.261V25.7209H102.717V14.7646Z" fill="white"/>
<path d="M106.412 21.7773C106.363 21.2594 106.422 20.7369 106.585 20.2432C106.748 19.7496 107.012 19.2957 107.359 18.9107C107.707 18.5258 108.131 18.2182 108.603 18.0077C109.076 17.7972 109.587 17.6885 110.104 17.6885C110.62 17.6885 111.131 17.7972 111.604 18.0077C112.076 18.2182 112.5 18.5258 112.848 18.9107C113.195 19.2957 113.459 19.7496 113.622 20.2432C113.785 20.7369 113.844 21.2594 113.795 21.7773C113.845 22.2957 113.787 22.8189 113.624 23.3133C113.461 23.8078 113.198 24.2624 112.85 24.6481C112.502 25.0339 112.079 25.3421 111.605 25.553C111.132 25.7639 110.621 25.8729 110.104 25.8729C109.586 25.8729 109.075 25.7639 108.602 25.553C108.128 25.3421 107.705 25.0339 107.357 24.6481C107.009 24.2624 106.746 23.8078 106.583 23.3133C106.42 22.8189 106.362 22.2957 106.412 21.7773ZM112.205 21.7773C112.205 20.0692 111.443 19.0703 110.106 19.0703C108.763 19.0703 108.008 20.0692 108.008 21.7773C108.008 23.4991 108.763 24.4903 110.106 24.4903C111.443 24.4903 112.205 23.4922 112.205 21.7773H112.205Z" fill="white"/>
<path d="M115.422 23.4922C115.422 22.0737 116.471 21.256 118.333 21.1398L120.453 21.0167V20.3365C120.453 19.5043 119.907 19.0343 118.851 19.0343C117.988 19.0343 117.391 19.353 117.219 19.9102H115.724C115.882 18.5566 117.147 17.6885 118.922 17.6885C120.884 17.6885 121.991 18.672 121.991 20.3365V25.7207H120.504V24.6133H120.382C120.134 25.0105 119.785 25.3344 119.372 25.5517C118.959 25.7691 118.496 25.8722 118.031 25.8505C117.702 25.8849 117.37 25.8496 117.056 25.7469C116.742 25.6442 116.452 25.4763 116.207 25.2541C115.961 25.0319 115.764 24.7603 115.629 24.4569C115.494 24.1534 115.423 23.8248 115.422 23.4922ZM120.453 22.8188V22.16L118.542 22.2831C117.464 22.3557 116.975 22.7248 116.975 23.4195C116.975 24.1288 117.586 24.5415 118.426 24.5415C118.673 24.5666 118.921 24.5415 119.158 24.4679C119.394 24.3942 119.613 24.2734 119.803 24.1127C119.992 23.952 120.147 23.7546 120.258 23.5323C120.37 23.3101 120.436 23.0674 120.453 22.8188Z" fill="white"/>
<path d="M124.021 21.7775C124.021 19.2875 125.293 17.7101 127.27 17.7101C127.76 17.6874 128.245 17.8054 128.67 18.0502C129.095 18.295 129.442 18.6566 129.671 19.0926H129.786V14.7646H131.331V25.7209H129.851V24.4759H129.728C129.482 24.909 129.123 25.2661 128.69 25.5085C128.257 25.7508 127.766 25.8692 127.27 25.8508C125.279 25.8509 124.021 24.2735 124.021 21.7775ZM125.617 21.7775C125.617 23.4489 126.4 24.4546 127.708 24.4546C129.01 24.4546 129.815 23.4344 129.815 21.7843C129.815 20.142 129.002 19.1072 127.708 19.1072C126.408 19.1072 125.617 20.1198 125.617 21.7775H125.617Z" fill="white"/>
<path d="M137.721 21.7771C137.671 21.2593 137.73 20.7368 137.893 20.2432C138.056 19.7495 138.32 19.2957 138.668 18.9107C139.015 18.5258 139.439 18.2182 139.911 18.0077C140.384 17.7972 140.895 17.6885 141.412 17.6885C141.928 17.6885 142.439 17.7972 142.912 18.0077C143.384 18.2182 143.808 18.5258 144.156 18.9107C144.503 19.2957 144.767 19.7495 144.93 20.2432C145.093 20.7368 145.152 21.2593 145.103 21.7771C145.153 22.2955 145.095 22.8187 144.932 23.3132C144.769 23.8076 144.506 24.2623 144.158 24.648C143.811 25.0337 143.387 25.3419 142.914 25.5529C142.441 25.7638 141.929 25.8728 141.412 25.8728C140.894 25.8728 140.383 25.7638 139.91 25.5529C139.437 25.3419 139.013 25.0337 138.665 24.648C138.318 24.2623 138.054 23.8076 137.891 23.3132C137.729 22.8187 137.67 22.2955 137.721 21.7771ZM143.514 21.7771C143.514 20.069 142.752 19.0701 141.414 19.0701C140.072 19.0701 139.316 20.069 139.316 21.7772C139.316 23.499 140.072 24.4902 141.414 24.4902C142.752 24.4901 143.514 23.4921 143.514 21.7771Z" fill="white"/>
<path d="M147.174 17.8405H148.661V19.0924H148.776C148.972 18.6427 149.302 18.2658 149.721 18.0142C150.14 17.7625 150.626 17.6486 151.112 17.6884C151.493 17.6596 151.875 17.7174 152.231 17.8576C152.586 17.9977 152.906 18.2167 153.166 18.4982C153.427 18.7796 153.621 19.1164 153.734 19.4836C153.847 19.8508 153.877 20.239 153.821 20.6193V25.7206H152.276V21.0099C152.276 19.7435 151.73 19.1137 150.587 19.1137C150.329 19.1016 150.071 19.1459 149.831 19.2436C149.591 19.3413 149.375 19.4901 149.197 19.6798C149.02 19.8695 148.885 20.0955 148.802 20.3425C148.72 20.5895 148.691 20.8515 148.719 21.1107V25.7207H147.174V17.8405Z" fill="white"/>
<path d="M162.551 15.8789V17.8767H164.246V19.1867H162.551V23.2387C162.551 24.0641 162.888 24.4255 163.657 24.4255C163.854 24.4249 164.051 24.4129 164.246 24.3896V25.685C163.969 25.735 163.688 25.7616 163.406 25.7645C161.688 25.7645 161.004 25.1561 161.004 23.6368V19.1866H159.762V17.8766H161.004V15.8789H162.551Z" fill="white"/>
<path d="M166.355 14.7646H167.887V19.1072H168.009C168.214 18.6534 168.553 18.2743 168.981 18.0217C169.408 17.7691 169.902 17.6552 170.395 17.6956C170.774 17.6748 171.153 17.7385 171.505 17.8821C171.856 18.0256 172.172 18.2456 172.429 18.5262C172.687 18.8067 172.88 19.1411 172.994 19.5053C173.108 19.8696 173.141 20.2547 173.091 20.6333V25.721H171.545V21.017C171.545 19.7583 170.962 19.1208 169.871 19.1208C169.605 19.0989 169.338 19.1357 169.089 19.2285C168.839 19.3213 168.612 19.468 168.424 19.6583C168.236 19.8486 168.092 20.0779 168.002 20.3302C167.911 20.5824 167.877 20.8515 167.9 21.1186V25.7209H166.356L166.355 14.7646Z" fill="white"/>
<path d="M182.097 23.5931C181.887 24.3133 181.433 24.9363 180.813 25.3531C180.193 25.7698 179.447 25.9538 178.706 25.8729C178.19 25.8866 177.677 25.7872 177.204 25.5815C176.73 25.3758 176.307 25.0689 175.963 24.6819C175.619 24.2949 175.362 23.8371 175.212 23.3405C175.061 22.8438 175.02 22.32 175.09 21.8056C175.021 21.2895 175.064 20.7646 175.214 20.2664C175.364 19.7683 175.619 19.3084 175.961 18.918C176.304 18.5277 176.725 18.2159 177.197 18.0038C177.67 17.7916 178.182 17.6842 178.699 17.6886C180.877 17.6886 182.19 19.1866 182.19 21.6611V22.2038H176.664V22.2909C176.639 22.5801 176.675 22.8712 176.77 23.1455C176.864 23.4198 177.014 23.6713 177.21 23.8838C177.406 24.0964 177.644 24.2653 177.909 24.3797C178.174 24.4942 178.46 24.5516 178.748 24.5484C179.118 24.5931 179.492 24.5261 179.823 24.356C180.155 24.1859 180.429 23.9203 180.61 23.5931L182.097 23.5931ZM176.664 21.0536H180.617C180.636 20.7891 180.601 20.5235 180.512 20.2737C180.424 20.024 180.284 19.7956 180.103 19.6034C179.921 19.4111 179.702 19.2592 179.459 19.1574C179.215 19.0556 178.954 19.0061 178.69 19.0122C178.423 19.0088 178.158 19.0593 177.911 19.1607C177.663 19.2621 177.438 19.4124 177.249 19.6027C177.06 19.7929 176.911 20.0193 176.811 20.2685C176.71 20.5177 176.66 20.7846 176.664 21.0536H176.664Z" fill="white"/>
<path d="M43.0254 35.2636C43.044 33.8136 43.4292 32.392 44.1449 31.1309C44.8607 29.8698 45.8838 28.8103 47.1191 28.0508C46.3343 26.9301 45.2991 26.0078 44.0955 25.3571C42.892 24.7065 41.5533 24.3454 40.1858 24.3026C37.2688 23.9964 34.4408 26.0482 32.9543 26.0482C31.439 26.0482 29.1503 24.333 26.6858 24.3837C25.0917 24.4352 23.5381 24.8988 22.1763 25.7293C20.8146 26.5597 19.6913 27.7287 18.9157 29.1224C15.5561 34.9391 18.062 43.4877 21.2803 48.1895C22.8904 50.4918 24.7723 53.0635 27.2346 52.9723C29.6441 52.8724 30.544 51.4359 33.4525 51.4359C36.334 51.4359 37.1783 52.9723 39.6906 52.9144C42.2761 52.8724 43.9051 50.6018 45.4588 48.2777C46.6157 46.6372 47.5059 44.8241 48.0965 42.9055C46.5944 42.2702 45.3125 41.2068 44.4107 39.8478C43.5089 38.4889 43.0271 36.8945 43.0254 35.2636Z" fill="white"/>
<path d="M38.2804 21.2121C39.6901 19.5198 40.3846 17.3446 40.2164 15.1484C38.0627 15.3746 36.0732 16.404 34.6444 18.0314C33.9458 18.8264 33.4108 19.7514 33.0699 20.7533C32.729 21.7552 32.5889 22.8145 32.6576 23.8706C33.7349 23.8817 34.8006 23.6482 35.7746 23.1877C36.7485 22.7272 37.6053 22.0518 38.2804 21.2121Z" fill="white"/>
</g>
<defs>
<clipPath id="clip0_2724_1787">
<rect width="208" height="70" fill="white"/>
</clipPath>
</defs>
</svg>
