<svg width="90" height="90" viewBox="0 0 90 90" fill="none" xmlns="http://www.w3.org/2000/svg">
<circle opacity="0.9" cx="45" cy="45" r="45" fill="#F8E9FE"/>
<path fill-rule="evenodd" clip-rule="evenodd" d="M28.4189 53.7074C28.4189 57.6977 31.6537 60.9325 35.644 60.9325H53.7067C57.6969 60.9325 60.9318 57.6977 60.9318 53.7074V39.2573C60.9318 35.267 57.6969 32.0322 53.7067 32.0322C52.7091 32.0322 51.9004 32.8409 51.9004 33.8385C51.9004 34.8361 52.7091 35.6448 53.7067 35.6448C55.7019 35.6448 57.3192 37.2621 57.3192 39.2573V53.7074C57.3192 55.7026 55.7019 57.32 53.7067 57.32H35.644C33.6489 57.32 32.0315 55.7026 32.0315 53.7074V39.2573C32.0315 37.2621 33.6489 35.6448 35.644 35.6448C36.6416 35.6448 37.4503 34.8361 37.4503 33.8385C37.4503 32.8409 36.6416 32.0322 35.644 32.0322C31.6537 32.0322 28.4189 35.267 28.4189 39.2573V53.7074Z" fill="#DBB6FF"/>
<path fill-rule="evenodd" clip-rule="evenodd" d="M46.4804 28.5838C46.4804 27.4955 45.6717 26.6133 44.6741 26.6133C43.6765 26.6133 42.8679 27.4955 42.8679 28.5838V45.763L39.2715 42.1215L36.7012 44.6601L43.3222 51.364C43.6588 51.7049 44.1171 51.898 44.5963 51.901C45.0753 51.9039 45.5359 51.7164 45.8768 51.3797L52.6476 44.6917L50.1088 42.1215L46.4804 45.7057V28.5838Z" fill="#6E50FF"/>
</svg>
