<svg width="90" height="90" viewBox="0 0 90 90" fill="none" xmlns="http://www.w3.org/2000/svg">
<g opacity="0.9" filter="url(#filter0_b_2788_2261)">
<circle cx="45" cy="45" r="45" fill="#F8E9FE"/>
</g>
<path fill-rule="evenodd" clip-rule="evenodd" d="M53.8721 44.3867H60.0357C60.57 44.3867 61.0332 44.85 60.9977 45.3843V60.9893C60.9977 61.5236 60.5702 61.9868 60.0001 61.9868H53.8721C53.3378 61.9868 52.8745 61.5594 52.8745 60.9893V45.3843C52.8745 44.85 53.302 44.3867 53.8721 44.3867ZM48.0636 49.7325H41.9356C41.3655 49.7325 40.9381 50.1957 40.9381 50.73V60.9908C40.9381 61.5609 41.4013 61.9884 41.9356 61.9884H48.0636C48.6337 61.9884 49.0612 61.5252 49.0612 60.9908V50.73C49.0612 50.1957 48.6337 49.7325 48.0636 49.7325ZM36.1289 53.5089H29.9654C29.431 53.5089 28.9678 53.9722 28.9678 54.5065V60.9907C28.9678 61.5608 29.431 61.9883 29.9654 61.9883H36.0933C36.6634 61.9883 37.0909 61.5251 37.0909 60.9907V54.5065C37.1264 53.9722 36.6634 53.5089 36.1289 53.5089Z" fill="#AC9BFF"/>
<path d="M46.8168 45.2056L53.3011 37.7238L55.8308 39.8971C56.1158 40.1466 56.5078 40.289 56.8638 40.2534C57.0063 40.2534 57.1489 40.2179 57.2913 40.1466C57.7901 39.9684 58.1464 39.5054 58.2176 38.9709L59.3933 29.7076C59.4646 29.2444 59.2864 28.7456 58.8945 28.425C58.5381 28.1045 58.0394 27.9976 57.5763 28.14L48.5269 30.6699C48.0281 30.8123 47.6362 31.2043 47.4938 31.7388C47.3869 32.2732 47.5651 32.8077 47.9571 33.1638L50.4867 35.3371L45.2139 41.3938L40.1898 37.0116C39.406 36.3346 38.2302 36.406 37.5891 37.1898L29.6441 46.3105C28.9671 47.0943 29.074 48.2698 29.8223 48.9468C30.2142 49.2674 30.6774 49.4456 31.1762 49.4101C31.6394 49.3745 32.1024 49.1606 32.4588 48.7689L39.1568 41.0377L44.1804 45.4198C44.9639 46.061 46.1397 45.9897 46.8164 45.2059L46.8168 45.2056Z" fill="#6E50FF"/>
<defs>
<filter id="filter0_b_2788_2261" x="-4" y="-4" width="98" height="98" filterUnits="userSpaceOnUse" color-interpolation-filters="sRGB">
<feFlood flood-opacity="0" result="BackgroundImageFix"/>
<feGaussianBlur in="BackgroundImageFix" stdDeviation="2"/>
<feComposite in2="SourceAlpha" operator="in" result="effect1_backgroundBlur_2788_2261"/>
<feBlend mode="normal" in="SourceGraphic" in2="effect1_backgroundBlur_2788_2261" result="shape"/>
</filter>
</defs>
</svg>
