<svg width="61" height="60" viewBox="0 0 61 60" fill="none" xmlns="http://www.w3.org/2000/svg">
<circle cx="30.4375" cy="30" r="30" fill="#F8E9FE"/>
<path d="M18 28C17.7348 28 17.4804 28.1054 17.2929 28.2929C17.1054 28.4804 17 28.7348 17 29V31C17 31.2652 17.1054 31.5196 17.2929 31.7071C17.4804 31.8946 17.7348 32 18 32H21.59C21.7433 30.6181 22.111 29.2686 22.68 28H18ZM18 20H38C38.2652 20 38.5196 19.8946 38.7071 19.7071C38.8946 19.5196 39 19.2652 39 19V17C39 16.7348 38.8946 16.4804 38.7071 16.2929C38.5196 16.1054 38.2652 16 38 16H18C17.7348 16 17.4804 16.1054 17.2929 16.2929C17.1054 16.4804 17 16.7348 17 17V19C17 19.2652 17.1054 19.5196 17.2929 19.7071C17.4804 19.8946 17.7348 20 18 20ZM23.78 26C24.8816 24.3778 26.3212 23.0133 28 22H17C16.7348 22 16.4804 22.1054 16.2929 22.2929C16.1054 22.4804 16 22.7348 16 23V25C16 25.2652 16.1054 25.5196 16.2929 25.7071C16.4804 25.8946 16.7348 26 17 26H23.78ZM19.57 34C19.3048 34 19.0504 34.1054 18.8629 34.2929C18.6754 34.4804 18.57 34.7348 18.57 35V37C18.57 37.2652 18.6754 37.5196 18.8629 37.7071C19.0504 37.8946 19.3048 38 19.57 38H22.29C21.8344 36.7132 21.5781 35.3643 21.53 34H19.57ZM23.18 40H18C17.7348 40 17.4804 40.1054 17.2929 40.2929C17.1054 40.4804 17 40.7348 17 41V43C17 43.2652 17.1054 43.5196 17.2929 43.7071C17.4804 43.8946 17.7348 44 18 44H26.53C25.1655 42.8956 24.0278 41.5372 23.18 40ZM35 22.5C32.8244 22.5 30.6977 23.1451 28.8887 24.3538C27.0798 25.5625 25.6699 27.2805 24.8373 29.2905C24.0048 31.3005 23.7869 33.5122 24.2114 35.646C24.6358 37.7798 25.6834 39.7398 27.2218 41.2782C28.7602 42.8166 30.7202 43.8642 32.854 44.2886C34.9878 44.7131 37.1995 44.4952 39.2095 43.6627C41.2195 42.8301 42.9375 41.4202 44.1462 39.6113C45.3549 37.8023 46 35.6756 46 33.5C46 30.5826 44.8411 27.7847 42.7782 25.7218C40.7153 23.6589 37.9174 22.5 35 22.5ZM36.12 39.36V40C36.0927 40.2981 35.955 40.5752 35.7339 40.7769C35.5128 40.9787 35.2243 41.0906 34.925 41.0906C34.6257 41.0906 34.3372 40.9787 34.1161 40.7769C33.895 40.5752 33.7573 40.2981 33.73 40V39.35C32.9076 39.2424 32.1036 39.0238 31.34 38.7C31.037 38.5795 30.7851 38.3576 30.6273 38.0723C30.4695 37.7869 30.4154 37.4557 30.4744 37.1349C30.5333 36.8142 30.7016 36.5238 30.9506 36.3132C31.1996 36.1027 31.5139 35.9849 31.84 35.98C32.8415 36.3276 33.8832 36.546 34.94 36.63C36.65 36.63 36.65 36.03 36.65 35.78C36.65 35.35 35.47 35.17 34.78 34.99C33.1 34.57 30.56 33.91 30.56 31.3C30.5833 30.4259 30.9139 29.5879 31.4936 28.9332C32.0733 28.2785 32.8651 27.849 33.73 27.72V27C33.7573 26.7019 33.895 26.4248 34.1161 26.2231C34.3372 26.0213 34.6257 25.9094 34.925 25.9094C35.2243 25.9094 35.5128 26.0213 35.7339 26.2231C35.955 26.4248 36.0927 26.7019 36.12 27V27.62C36.8299 27.6852 37.5288 27.8397 38.2 28.08C38.5101 28.1895 38.7718 28.4047 38.9391 28.6879C39.1064 28.9711 39.1687 29.3041 39.115 29.6286C39.0613 29.9531 38.8951 30.2483 38.6455 30.4625C38.3959 30.6767 38.0789 30.7962 37.75 30.8C36.9233 30.5553 36.0709 30.4076 35.21 30.36C34.4 30.36 33.45 30.58 33.45 31.2C33.45 31.62 34.03 31.82 35.45 32.15C37.09 32.54 39.58 33.15 39.58 35.86C39.54 37.68 38.18 39 36.12 39.36Z" fill="#6E50FF"/>
</svg>
