<svg width="61" height="60" viewBox="0 0 61 60" fill="none" xmlns="http://www.w3.org/2000/svg">
<circle cx="30.5625" cy="30" r="30" fill="#F8E9FE"/>
<path d="M37.6709 39.1597C38.2723 39.0085 38.8214 38.6971 39.2598 38.2586C39.6983 37.8202 40.0097 37.2711 40.1609 36.6697C41.174 32.1322 41.174 27.4272 40.1609 22.8897C40.0677 22.4367 39.8838 22.0073 39.6204 21.6272C39.3569 21.2472 39.0193 20.9243 38.6279 20.678C38.2365 20.4318 37.7993 20.2672 37.3427 20.1942C36.886 20.1212 36.4193 20.1413 35.9706 20.2533C35.5219 20.3653 35.1005 20.5669 34.7318 20.8459C34.363 21.125 34.0544 21.4757 33.8247 21.877C33.5949 22.2784 33.4487 22.722 33.3947 23.1813C33.3408 23.6406 33.3803 24.1061 33.5109 24.5497C33.7087 25.457 33.8523 26.3753 33.9409 27.2997L26.3809 20.8397C25.7697 20.2763 24.9642 19.9711 24.133 19.988C23.3019 20.0049 22.5095 20.3426 21.9216 20.9304C21.3338 21.5183 20.9961 22.3107 20.9792 23.1418C20.9623 23.973 21.2675 24.7784 21.8309 25.3897L28.3309 32.9997C27.394 32.9164 26.4647 32.7626 25.5509 32.5397C25.1073 32.4091 24.6418 32.3696 24.1825 32.4235C23.7232 32.4774 23.2796 32.6237 22.8782 32.8534C22.4769 33.0832 22.1262 33.3918 21.8472 33.7605C21.5681 34.1293 21.3665 34.5507 21.2545 34.9994C21.1425 35.4481 21.1224 35.9148 21.1954 36.3715C21.2684 36.8281 21.433 37.2653 21.6792 37.6567C21.9255 38.0481 22.2484 38.3857 22.6285 38.6492C23.0085 38.9126 23.438 39.0965 23.8909 39.1897C28.4306 40.1929 33.1356 40.1826 37.6709 39.1597Z" fill="#6E50FF"/>
</svg>
