<svg width="61" height="60" viewBox="0 0 61 60" fill="none" xmlns="http://www.w3.org/2000/svg">
<circle cx="30.5625" cy="30" r="30" fill="#F8E9FE"/>
<path fill-rule="evenodd" clip-rule="evenodd" d="M37.2169 29.54H41.8396C42.2403 29.54 42.5877 29.8875 42.5611 30.2882V41.9919C42.5611 42.3927 42.2405 42.7401 41.8129 42.7401H37.2169C36.8162 42.7401 36.4688 42.4195 36.4688 41.9919V30.2882C36.4688 29.8875 36.7894 29.54 37.2169 29.54ZM32.8617 33.5488H28.2658C27.8382 33.5488 27.5176 33.8963 27.5176 34.297V41.9926C27.5176 42.4202 27.865 42.7408 28.2658 42.7408H32.8617C33.2893 42.7408 33.6099 42.3934 33.6099 41.9926V34.297C33.6099 33.8963 33.2893 33.5488 32.8617 33.5488ZM23.9099 36.3817H19.2872C18.8865 36.3817 18.5391 36.7291 18.5391 37.1299V41.9931C18.5391 42.4206 18.8865 42.7412 19.2872 42.7412H23.8832C24.3108 42.7412 24.6314 42.3938 24.6314 41.9931V37.1299C24.6581 36.7291 24.3108 36.3817 23.9099 36.3817Z" fill="#AC9BFF"/>
<path d="M31.9266 30.1542L36.7898 24.5428L38.687 26.1728C38.9008 26.3599 39.1948 26.4667 39.4619 26.4401C39.5687 26.4401 39.6756 26.4134 39.7824 26.3599C40.1565 26.2263 40.4238 25.8791 40.4771 25.4781L41.3589 18.5307C41.4124 18.1833 41.2788 17.8092 40.9848 17.5688C40.7176 17.3283 40.3435 17.2482 39.9962 17.355L33.2091 19.2525C32.8351 19.3593 32.5411 19.6532 32.4343 20.0541C32.3542 20.4549 32.4878 20.8558 32.7818 21.1229L34.679 22.7528L30.7244 27.2953L26.9563 24.0087C26.3685 23.501 25.4866 23.5545 25.0058 24.1424L19.047 30.9829C18.5393 31.5707 18.6194 32.4524 19.1807 32.9601C19.4746 33.2006 19.822 33.3342 20.1961 33.3076C20.5435 33.2809 20.8908 33.1204 21.158 32.8267L26.1816 27.0283L29.9492 30.3149C30.5369 30.7958 31.4187 30.7423 31.9263 30.1544L31.9266 30.1542Z" fill="#6E50FF"/>
</svg>
