<svg width="32" height="32" viewBox="0 0 32 32" fill="none" xmlns="http://www.w3.org/2000/svg">
<circle cx="16" cy="16" r="16" fill="#F8E9FE"/>
<path d="M20 8.5H12C11.4696 8.5 10.9609 8.71071 10.5858 9.08579C10.2107 9.46086 10 9.96957 10 10.5V23.5H14V21H18V23.5H22V10.5C22 9.96957 21.7893 9.46086 21.4142 9.08579C21.0391 8.71071 20.5304 8.5 20 8.5ZM15.5 19H13V17H15.5V19ZM15.5 16H13V14H15.5V16ZM15.5 13H13V11H15.5V13ZM19 19H16.5V17H19V19ZM19 16H16.5V14H19V16ZM19 13H16.5V11H19V13Z" fill="#6E50FF"/>
</svg>
