<svg width="32" height="32" viewBox="0 0 32 32" fill="none" xmlns="http://www.w3.org/2000/svg">
<circle cx="16" cy="16" r="16" fill="#F8E9FE"/>
<path d="M22.5 11.5C22.5 10.837 22.2366 10.2011 21.7678 9.73223C21.2989 9.26339 20.663 9 20 9H12C11.337 9 10.7011 9.26339 10.2322 9.73223C9.76339 10.2011 9.5 10.837 9.5 11.5V19.5H22.5V11.5ZM20.5 17.5H11.5V11.5H20.5V17.5ZM18 20.5C18 20.7652 17.8946 21.0196 17.7071 21.2071C17.5196 21.3946 17.2652 21.5 17 21.5H15C14.7348 21.5 14.4804 21.3946 14.2929 21.2071C14.1054 21.0196 14 20.7652 14 20.5H8.5C8.5 21.163 8.76339 21.7989 9.23223 22.2678C9.46438 22.4999 9.73998 22.6841 10.0433 22.8097C10.3466 22.9353 10.6717 23 11 23H21C21.663 23 22.2989 22.7366 22.7678 22.2678C23.2366 21.7989 23.5 21.163 23.5 20.5H18Z" fill="#6E50FF"/>
</svg>
