<svg width="32" height="32" viewBox="0 0 32 32" fill="none" xmlns="http://www.w3.org/2000/svg">
<circle cx="16" cy="16" r="16" fill="#F8E9FE"/>
<path d="M18.3333 10C16.6765 10 15.3333 11.3433 15.3333 13C15.3333 14.6567 16.6765 16 18.3333 16C19.9902 16 21.3333 14.6567 21.3333 13C21.3333 11.3433 19.9902 10 18.3333 10ZM16.0417 16.896C14.8189 17.4007 14 18.6373 14 20V21.3333C14 21.7013 14.2985 22 14.6667 22H22C22.3682 22 22.6667 21.7013 22.6667 21.3333V20C22.6667 18.6693 21.8432 17.4627 20.625 16.9373C20.4535 16.8633 20.2537 16.8613 20.0833 16.9373C19.4935 17.202 18.9188 17.3333 18.3333 17.3333C17.7499 17.3333 17.1732 17.1947 16.5625 16.9167C16.3946 16.84 16.2122 16.8253 16.0417 16.896Z" fill="#6E50FF"/>
<path d="M13.3335 10.667C11.8608 10.667 10.6668 11.861 10.6668 13.3337C10.6668 14.8063 11.8608 16.0003 13.3335 16.0003C13.8864 16.0003 14.3912 15.8483 14.8354 15.5377C13.6962 13.8443 13.8576 12.223 14.4785 10.917C14.1239 10.749 13.7344 10.667 13.3335 10.667ZM11.3752 16.8963C10.1524 17.401 9.3335 18.6377 9.3335 20.0003V21.3337C9.3335 21.7017 9.63196 22.0003 10.0002 22.0003L12.7687 22.0017C12.6127 21.495 12.6586 20.6737 12.6688 20.009C12.6905 18.5977 13.2742 17.591 13.5028 17.3257C13.0826 17.3223 12.5784 17.2203 12.2085 17.063C12.1192 17.025 12.0673 16.995 11.896 16.917C11.7281 16.8403 11.5457 16.8257 11.3752 16.8963Z" fill="#6E50FF"/>
</svg>
