<svg width="32" height="32" viewBox="0 0 32 32" fill="none" xmlns="http://www.w3.org/2000/svg">
<circle cx="16" cy="16" r="16" fill="#F8E9FE"/>
<path d="M16.5385 21.6286L21.9231 18.6923V13.3413L16.5385 15.3017V21.6286ZM16 14.351L21.8726 12.2139L16 10.0769L10.1274 12.2139L16 14.351ZM23 12.2308V18.6923C23 18.8886 22.9495 19.0709 22.8486 19.2392C22.7476 19.4075 22.6102 19.5393 22.4363 19.6346L16.5132 22.8654C16.3562 22.9551 16.1851 23 16 23C15.8149 23 15.6438 22.9551 15.4868 22.8654L9.5637 19.6346C9.38982 19.5393 9.2524 19.4075 9.15144 19.2392C9.05048 19.0709 9 18.8886 9 18.6923V12.2308C9 12.0064 9.0645 11.8017 9.19351 11.6166C9.32252 11.4315 9.49359 11.2997 9.70673 11.2212L15.6298 9.06731C15.7532 9.02243 15.8766 9 16 9C16.1234 9 16.2468 9.02243 16.3702 9.06731L22.2933 11.2212C22.5064 11.2997 22.6775 11.4315 22.8065 11.6166C22.9355 11.8017 23 12.0064 23 12.2308Z" fill="#6E50FF"/>
</svg>
