<svg width="90" height="90" viewBox="0 0 90 90" fill="none" xmlns="http://www.w3.org/2000/svg">
<g opacity="0.9" filter="url(#filter0_b_2788_2241)">
<circle cx="45" cy="45" r="45" fill="#F8E9FE"/>
</g>
<path fill-rule="evenodd" clip-rule="evenodd" d="M60.7328 32.4575C61.5214 31.671 61.5214 30.3956 60.7328 29.6091C59.9442 28.8225 58.6657 28.8225 57.8772 29.6091L41.1319 46.3126L41.1319 39.0901L37.0934 39.0901L37.0934 51.1753C37.0934 52.2877 37.9975 53.1895 39.1127 53.1895L51.2281 53.1895L51.2281 49.1611L43.9875 49.1611L60.7328 32.4575Z" fill="#6E50FF"/>
<path fill-rule="evenodd" clip-rule="evenodd" d="M63.3457 55.1991C63.3457 59.6487 59.7295 63.2559 55.2688 63.2559L35.0765 63.2559C30.6158 63.2559 26.9995 59.6487 26.9995 55.1991L26.9995 35.0571C26.9995 30.6076 30.6158 27.0003 35.0765 27.0003L43.1534 27.0003C44.2686 27.0003 45.1726 27.9021 45.1726 29.0145C45.1726 30.127 44.2686 31.0287 43.1534 31.0287L35.0765 31.0287C32.846 31.0287 31.038 32.8322 31.038 35.0571L31.038 55.1991C31.038 57.4239 32.846 59.2275 35.0765 59.2275L55.2688 59.2275C57.4992 59.2275 59.3072 57.4239 59.3072 55.1991L59.3072 47.1423C59.3072 46.0299 60.2113 45.1281 61.3265 45.1281C62.4417 45.1281 63.3457 46.0299 63.3457 47.1423L63.3457 55.1991Z" fill="#AC9BFF"/>
<defs>
<filter id="filter0_b_2788_2241" x="-4" y="-4" width="98" height="98" filterUnits="userSpaceOnUse" color-interpolation-filters="sRGB">
<feFlood flood-opacity="0" result="BackgroundImageFix"/>
<feGaussianBlur in="BackgroundImageFix" stdDeviation="2"/>
<feComposite in2="SourceAlpha" operator="in" result="effect1_backgroundBlur_2788_2241"/>
<feBlend mode="normal" in="SourceGraphic" in2="effect1_backgroundBlur_2788_2241" result="shape"/>
</filter>
</defs>
</svg>
