<svg width="90" height="90" viewBox="0 0 90 90" fill="none" xmlns="http://www.w3.org/2000/svg">
<g opacity="0.9" filter="url(#filter0_b_2724_5326)">
<circle cx="45" cy="45" r="45" fill="#F8E9FE"/>
</g>
<path fill-rule="evenodd" clip-rule="evenodd" d="M28.5748 57.2065C27.7863 57.9931 27.7863 59.2684 28.5748 60.055C29.3634 60.8415 30.6419 60.8415 31.4304 60.055L48.1757 43.3515V50.574H52.2142V38.4888C52.2142 37.3764 51.3102 36.4746 50.1949 36.4746H38.0796V40.503H45.3201L28.5748 57.2065Z" fill="#6E50FF"/>
<path fill-rule="evenodd" clip-rule="evenodd" d="M25.9619 34.465C25.9619 30.0153 29.5781 26.4082 34.0388 26.4082H54.2311C58.6918 26.4082 62.3081 30.0153 62.3081 34.465V54.6069C62.3081 59.0565 58.6918 62.6637 54.2311 62.6637H46.1542C45.039 62.6637 44.135 61.762 44.135 60.6495C44.135 59.5371 45.039 58.6353 46.1542 58.6353H54.2311C56.4616 58.6353 58.2696 56.8318 58.2696 54.6069V34.465C58.2696 32.2402 56.4616 30.4366 54.2311 30.4366H34.0388C31.8085 30.4366 30.0004 32.2402 30.0004 34.465V42.5218C30.0004 43.6342 29.0963 44.536 27.9811 44.536C26.866 44.536 25.9619 43.6342 25.9619 42.5218V34.465Z" fill="#AC9BFF"/>
<defs>
<filter id="filter0_b_2724_5326" x="-4" y="-4" width="98" height="98" filterUnits="userSpaceOnUse" color-interpolation-filters="sRGB">
<feFlood flood-opacity="0" result="BackgroundImageFix"/>
<feGaussianBlur in="BackgroundImageFix" stdDeviation="2"/>
<feComposite in2="SourceAlpha" operator="in" result="effect1_backgroundBlur_2724_5326"/>
<feBlend mode="normal" in="SourceGraphic" in2="effect1_backgroundBlur_2724_5326" result="shape"/>
</filter>
</defs>
</svg>
