<svg width="90" height="90" viewBox="0 0 90 90" fill="none" xmlns="http://www.w3.org/2000/svg">
<g opacity="0.9" filter="url(#filter0_b_2788_2254)">
<circle cx="45" cy="45" r="45" fill="#F8E9FE"/>
</g>
<path fill-rule="evenodd" clip-rule="evenodd" d="M40.6885 44.7239C39.9 45.5124 39.9 46.791 40.6885 47.5795C41.477 48.368 42.7556 48.368 43.5441 47.5795L58.2701 32.8534L58.2701 40.094L62.3086 40.094L62.3086 27.9786C62.3086 26.8634 61.4045 25.9594 60.2894 25.9594L48.174 25.9594L48.174 29.9978L55.4145 29.9978L40.6885 44.7239Z" fill="#6E50FF"/>
<path fill-rule="evenodd" clip-rule="evenodd" d="M58.2705 54.2307C58.2705 58.6915 54.6543 62.3076 50.1936 62.3076L34.0397 62.3076C29.5791 62.3076 25.9628 58.6915 25.9628 54.2307L25.9628 38.0768C25.9628 33.6162 29.5791 29.9999 34.0397 29.9999L40.0974 29.9999C41.2126 29.9999 42.1167 30.9039 42.1167 32.0192C42.1167 33.1344 41.2126 34.0384 40.0974 34.0384L34.0397 34.0384C31.8093 34.0384 30.0013 35.8464 30.0013 38.0768L30.0013 54.2307C30.0013 56.4611 31.8093 58.2692 34.0397 58.2692L50.1936 58.2692C52.424 58.2692 54.232 56.4611 54.232 54.2307L54.232 48.173C54.232 47.0578 55.1361 46.1538 56.2513 46.1538C57.3665 46.1538 58.2705 47.0578 58.2705 48.173L58.2705 54.2307Z" fill="#AC9BFF"/>
<defs>
<filter id="filter0_b_2788_2254" x="-4" y="-4" width="98" height="98" filterUnits="userSpaceOnUse" color-interpolation-filters="sRGB">
<feFlood flood-opacity="0" result="BackgroundImageFix"/>
<feGaussianBlur in="BackgroundImageFix" stdDeviation="2"/>
<feComposite in2="SourceAlpha" operator="in" result="effect1_backgroundBlur_2788_2254"/>
<feBlend mode="normal" in="SourceGraphic" in2="effect1_backgroundBlur_2788_2254" result="shape"/>
</filter>
</defs>
</svg>
