<svg width="61" height="60" viewBox="0 0 61 60" fill="none" xmlns="http://www.w3.org/2000/svg">
<circle cx="30.5625" cy="30" r="30" fill="#F8E9FE"/>
<path d="M21.9166 15.0001C20.6367 15.008 19.3878 15.3948 18.3274 16.1116C17.2671 16.8284 16.4427 17.8432 15.9584 19.0279C15.4741 20.2127 15.3515 21.5143 15.606 22.7687C15.8605 24.023 16.4808 25.1739 17.3886 26.0761C18.2965 26.9784 19.4511 27.5916 20.707 27.8384C21.9629 28.0852 23.2638 27.9545 24.4455 27.4629C25.6272 26.9713 26.6369 26.1408 27.3472 25.076C28.0575 24.0113 28.4365 22.76 28.4366 21.4801C28.4366 20.6258 28.2677 19.7799 27.9395 18.9911C27.6114 18.2023 27.1305 17.4861 26.5245 16.8839C25.9185 16.2816 25.1995 15.8051 24.4086 15.4819C23.6178 15.1586 22.7709 14.9948 21.9166 15.0001ZM45.2266 24.7901L34.9266 19.2101C34.8617 19.17 34.7883 19.146 34.7123 19.1399C34.6363 19.1339 34.5599 19.146 34.4896 19.1753C34.4192 19.2047 34.3568 19.2503 34.3076 19.3085C34.2584 19.3668 34.2238 19.4359 34.2066 19.5101L30.8666 30.7301C30.7666 31.0601 30.9466 31.2201 31.2666 31.0901L35.5166 29.3301L39.8766 36.9001C39.9718 37.043 40.1125 37.1495 40.276 37.2021C40.4394 37.2548 40.6158 37.2506 40.7766 37.1901L42.7766 36.3601C42.9343 36.2907 43.0637 36.1698 43.1436 36.0172C43.2236 35.8645 43.2493 35.6893 43.2166 35.5201L40.9466 27.0801L45.1966 25.3201C45.5066 25.1901 45.5166 25.0001 45.2166 24.7901H45.2266ZM21.9166 32.0001C20.6384 32.008 19.3911 32.3938 18.3316 33.1089C17.2721 33.8239 16.4478 34.8363 15.9623 36.0188C15.4768 37.2012 15.3519 38.5008 15.6032 39.754C15.8545 41.0073 16.4708 42.1582 17.3746 43.0621C18.2785 43.9659 19.4294 44.5822 20.6827 44.8335C21.9359 45.0848 23.2355 44.9599 24.4179 44.4744C25.6003 43.9889 26.6128 43.1646 27.3278 42.1051C28.0429 41.0456 28.4287 39.7983 28.4366 38.5201C28.4419 37.6624 28.2769 36.8122 27.9511 36.0188C27.6253 35.2253 27.1452 34.5044 26.5387 33.8979C25.9322 33.2914 25.2114 32.8114 24.4179 32.4856C23.6245 32.1598 22.7743 31.9948 21.9166 32.0001ZM21.9166 41.0001C21.423 40.9962 20.9416 40.8462 20.5331 40.5691C20.1246 40.292 19.8073 39.9002 19.6212 39.4431C19.435 38.9859 19.3884 38.4839 19.4871 38.0003C19.5858 37.5166 19.8254 37.073 20.1759 36.7254C20.5263 36.3778 20.9717 36.1417 21.4561 36.0468C21.9405 35.9519 22.4422 36.0026 22.8978 36.1924C23.3535 36.3822 23.7428 36.7026 24.0166 37.1133C24.2904 37.524 24.4365 38.0065 24.4366 38.5001C24.4366 38.8301 24.3713 39.1569 24.2444 39.4615C24.1175 39.7661 23.9315 40.0426 23.6973 40.275C23.463 40.5074 23.185 40.6911 22.8794 40.8156C22.5738 40.94 22.2465 41.0028 21.9166 41.0001Z" fill="#6E50FF"/>
</svg>
