<svg width="54" height="64" viewBox="0 0 54 64" fill="none" xmlns="http://www.w3.org/2000/svg">
<path fill-rule="evenodd" clip-rule="evenodd" d="M19.2391 48.2244C25.045 48.8142 30.0969 50.8568 35.517 52.7375C36.5755 53.1049 37.1137 54.3453 36.7242 55.5086C36.3345 56.6727 35.1573 57.3177 34.0986 56.9509C28.9591 55.1675 24.173 53.1839 18.6586 52.6224C17.5431 52.5091 16.7663 51.4303 16.9295 50.2175C17.0861 49.0031 18.1239 48.1104 19.2391 48.2244Z" fill="#CFD5DE"/>
<path fill-rule="evenodd" clip-rule="evenodd" d="M13.4018 33.7303C24.7027 27.2926 38.0601 22.2777 50.5438 19.993C51.6339 19.7944 52.6331 20.5866 52.7709 21.7606C52.9087 22.9346 52.1401 24.0512 51.05 24.2498C38.9797 26.4595 26.061 31.3095 15.1383 37.5363C14.1487 38.0983 12.9574 37.7021 12.4797 36.6524C12.002 35.6027 12.4122 34.2923 13.4018 33.7303Z" fill="#CFD5DE"/>
<path fill-rule="evenodd" clip-rule="evenodd" d="M4.91046 27.8383C6.71957 18.9236 12.0365 11.0652 17.8712 4.57364C18.636 3.72811 19.8602 3.67972 20.6037 4.46455C21.3529 5.25234 21.3402 6.57859 20.5814 7.42642C15.2649 13.3375 10.3327 20.4392 8.68398 28.5581C8.45305 29.6972 7.41855 30.4599 6.37954 30.2617C5.3403 30.0642 4.67978 28.9768 4.91046 27.8383Z" fill="#CFD5DE"/>
</svg>
